<svg viewBox="0 0 500 500" xmlns="http://www.w3.org/2000/svg"><g fill="#a02c2c"><path d="M153.66 60c-19.093 13.161-35.362 30.116-47.719 49.781h7.9688c9.6414-19.281 23.234-36.242 39.75-49.781zm192.69 0c16.516 13.539 30.109 30.5 39.75 49.781h7.9688c-12.356-19.666-28.626-36.62-47.719-49.781zM80.1 194.78c-.0527 1.7404-.0937 3.4967-.0937 5.25 0 78.308 52.953 144.24 125 163.97v-41c-56.782-17.567-99.329-67.483-106.12-128.22h-18.781zm321.03 0c-7.1904 64.251-54.391 116.39-116.12 130.94v40.719c77.094-16.138 135-84.518 135-166.41 0-1.7533-.041-3.5096-.0937-5.25h-18.781z"/><path d="M20 114.78h175v30h15v-60l5 5 20 5 5 5h-15v60H50l-10-15h140v-15H30zm460 0H295v30h-15v-60l-5 5-20 5-5 5h15v60h185l10-15H310v-15h160z"/><path d="m60 174.78 10 15h140v215l25-25v60l20-20v-30l10-10v25l15-15v-200h150l10-15H265v190l-10 10v-235h-20v225l-10 10v-200zm195-55a10 10 0 1 1-20 0 10 10 0 1 1 20 0z"/></g></svg>